<svg xmlns="http://www.w3.org/2000/svg" viewBox="0 0 356.82 357.36"><g id="Layer_2" data-name="Layer 2"><g id="Layer_1-2" data-name="Layer 1"><circle cx="178.41" cy="178.68" r="178.41" fill="#5b5b5b"/><path d="M336.6,261.22a178.41,178.41,0,1,0-316.38,0l3.92,7.13,306.1,4.28Z" fill="#a3a3a3"/><path d="M166.21.8C127.71,6.05,124.05,27.87,124,35.88a4.43,4.43,0,0,1-2.45,4c-20,9.74-9.23,56.69-9.23,56.69A16.39,16.39,0,0,1,118,98.26a34.57,34.57,0,0,1,1.9-7,29.45,29.45,0,0,1,2.57-5.15,15.72,15.72,0,0,0,2.42-9.65c-.72-9.79-.37-29.1,12.56-34.91,10.95-4.93,24.39-2.08,33,.77a27.22,27.22,0,0,0,17.16,0c8.57-2.85,22-5.7,33-.77,12.89,5.8,13.28,25,12.56,34.83a16,16,0,0,0,2.41,9.73,29.5,29.5,0,0,1,2.64,5.31A34.44,34.44,0,0,1,240,98.26c2-1,4.81-2,7.23-1.66.29-10.27,1.24-21.33,1.24-21.33C259.9,19.38,207.66-4.85,166.21.8Z" fill="#6b6b6b"/><path d="M166.21.8C127.71,6.05,124.05,27.87,124,35.88a4.38,4.38,0,0,1-2.45,4c-20,9.75-9.22,56.7-9.22,56.7A16.4,16.4,0,0,1,118,98.26a34.4,34.4,0,0,1,1.9-7,29.51,29.51,0,0,1,2.58-5.15,15.78,15.78,0,0,0,2.41-9.65c-.72-9.79-.37-29.1,12.56-34.92,10.42-4.69,23.09-2.33,31.68.37l-.23-.43C154.6,16.39,178.86.58,179.74,0A89.18,89.18,0,0,0,166.21.8Z" fill="#4f4f4f"/><path d="M251.57,97.94c-3-2.75-9-1.36-11.55.32a36.47,36.47,0,0,1,.11,10.69l-3,22.2c0,1.79-.06,3.54-.16,5.27,7.43,2.24,11.12-4.43,11.75-9A33.2,33.2,0,0,1,250,121.6c2-6.17,9.11-16.78,1.59-23.66Z" fill="#fcad6d"/><path d="M245.12,116.62A11,11,0,0,1,239.3,115l-2.22,16.19c0,1.79-.06,3.54-.16,5.27,7.43,2.24,11.12-4.43,11.75-9A33.2,33.2,0,0,1,250,121.6c.77-2.41,2.33-5.51,3.5-8.79a11.08,11.08,0,0,1-8.36,3.81Z" fill="#fd995b"/><path d="M106.49,97.94c3-2.75,9-1.36,11.55.32a36.13,36.13,0,0,0-.11,10.69l3,22.2c0,1.79.06,3.54.16,5.27-7.43,2.24-11.12-4.43-11.75-9a33.2,33.2,0,0,0-1.31-5.81c-2-6.17-9.11-16.78-1.59-23.66Z" fill="#fcad6d"/><path d="M118.65,114.17a11.07,11.07,0,0,1-13.42.36c1,2.64,2.21,5.08,2.85,7.07a33.2,33.2,0,0,1,1.31,5.81c.63,4.58,4.32,11.25,11.75,9-.1-1.73-.16-3.48-.16-5.27Z" fill="#fd995b"/><path d="M141.11,219.89c4.08,9.89,11.33,19.21,21.53,27.68a5.72,5.72,0,0,1,2.06,4.19l0,1h28.58l0-1a5.72,5.72,0,0,1,2.06-4.19c10.2-8.47,17.45-17.79,21.53-27.68A46.2,46.2,0,0,0,220.62,203a73.13,73.13,0,0,1-3.25-20.27A82.12,82.12,0,0,1,205.55,194a43.31,43.31,0,0,1-53,0,82.12,82.12,0,0,1-11.82-11.29A73.13,73.13,0,0,1,137.44,203a46.2,46.2,0,0,0,3.67,16.93Z" fill="#fcad6d"/><path d="M179,203.05A43.22,43.22,0,0,1,152.51,194a81.61,81.61,0,0,1-11.82-11.29A73.13,73.13,0,0,1,137.44,203a46.2,46.2,0,0,0,3.67,16.93c4.08,9.89,11.33,19.21,21.53,27.68a3.2,3.2,0,0,1,.27.25C178.09,233.6,179,203.05,179,203.05Z" fill="#fd995b"/><path d="M192.82,338a313.07,313.07,0,0,0,30-74.31c-2.26,3.48-4.41,6.62-6.26,9.24a5.28,5.28,0,0,1-8.52.16l-6-7.86L195.9,276.2a9.26,9.26,0,0,1-8.33,5.15h-17a9.26,9.26,0,0,1-8.33-5.15l-6.19-11L150,273.12a5.32,5.32,0,0,1-4.31,2.08,5.23,5.23,0,0,1-4.21-2.24c-1.85-2.62-4-5.76-6.26-9.24a312.88,312.88,0,0,0,30,74.31Z" fill="#bec8f7"/><path d="M187.57,281.35h-17a9.41,9.41,0,0,1-2.38-.31c-4.49,12-7.45,29.8-9.37,45a293.84,293.84,0,0,0,18.33,31.24c.62,0,1.23,0,1.85,0s1.23,0,1.85,0A294.17,294.17,0,0,0,200,324.63c-1.94-14.92-4.88-32.17-9.27-43.81A9.24,9.24,0,0,1,187.57,281.35Z" fill="#543e5b"/><path d="M187.57,281.35h-17a9.41,9.41,0,0,1-2.38-.31c-4.49,12-7.45,29.8-9.37,45a293.84,293.84,0,0,0,18.33,31.24c.62,0,1.23,0,1.85,0s1.23,0,1.85,0A294.17,294.17,0,0,0,200,324.63c-1.94-14.92-4.88-32.17-9.27-43.81A9.24,9.24,0,0,1,187.57,281.35Z" fill="#ffcd00"/><path d="M179.09,315.15a20.83,20.83,0,0,1-17.22-9.09c-1.21,6.72-2.21,13.6-3,20a293.84,293.84,0,0,0,18.33,31.24c.62,0,1.23,0,1.85,0s1.23,0,1.85,0A294.17,294.17,0,0,0,200,324.63c-.82-6.29-1.82-13-3-19.52A20.85,20.85,0,0,1,179.09,315.15Z" fill="#ffcd00"/><path d="M194,251.73H164.87l-9.31,14.69,5.8,11.6a10.33,10.33,0,0,0,9.24,5.71h17a10.33,10.33,0,0,0,9.24-5.71l5.8-11.6Z" fill="#ffcd00"/><path d="M181.51,277.88a23.49,23.49,0,0,1,1.17-23.08l1.94-3.07H164.87l-9.31,14.69,5.8,11.6a10.33,10.33,0,0,0,9.24,5.71h17a9.48,9.48,0,0,0,1.69-.15,10.54,10.54,0,0,1-7.75-5.7Z" fill="#ffcd00"/><path d="M207.24,273.74a6.3,6.3,0,0,0,10.16-.19c2.08-2.95,4.64-6.7,7.35-10.94a329.39,329.39,0,0,0,8.95-53.08l-11.55-10.07a1.55,1.55,0,0,0-2.57,1.24c.37,7.94-1.63,26.84-24.81,46.09a6.7,6.7,0,0,0-1.06,9.24Z" fill="#e9efff"/><path d="M133.31,262.62c2.71,4.23,5.27,8,7.34,10.93a6.31,6.31,0,0,0,10.17.19L164.35,256a6.71,6.71,0,0,0-1.06-9.24c-23.18-19.25-25.18-38.15-24.81-46.09a1.55,1.55,0,0,0-2.57-1.24l-11.55,10.07a329.63,329.63,0,0,0,9,53.09Z" fill="#e9efff"/><path d="M155.56,239.61c-15.92-16.62-17.4-32-17.08-38.91a1.55,1.55,0,0,0-2.57-1.24l-11.55,10.07a324.78,324.78,0,0,0,6.6,43.13,10.14,10.14,0,0,0,6.53-4.26c8.76-12.78,18.07-8.79,18.07-8.79Z" fill="#dae2fe"/><path d="M111.58,314.1a3,3,0,0,1-.22-3.58l12.07-18a5,5,0,0,0-2.52-7.5l-20.17-7a3,3,0,0,1-2-2.52,234.09,234.09,0,0,1,.3-47,10.05,10.05,0,0,1,1.51-4.25c-5.12,2.32-10.16,4.89-15.17,7.71-5.83,3.29-8.46,5.21-13.41,5.61-22.52,1.84-36.42,13-44.95,27.1A171.11,171.11,0,0,0,156.1,355.82a313.34,313.34,0,0,1-44.52-41.72Z" fill="#5b5b5b"/><path d="M69.09,316.6c2.52-44,27.62-52.88,27.62-52.88.39-.39.78-.77,1.18-1.13a237.23,237.23,0,0,1,1.17-34,10,10,0,0,1,1.51-4.24c-5.12,2.31-10.16,4.88-15.17,7.7-5.83,3.29-8.46,5.21-13.41,5.61-22.52,1.84-39.31,16.61-47.85,30.68C34.57,288.53,51.6,305,68.84,319.49Z" fill="#3f3f3f"/><path d="M126.66,207.93a2.94,2.94,0,0,0-4.73-2.1L102.26,221a11,11,0,0,0-4.21,7.5,236.58,236.58,0,0,0-.31,47.17,4,4,0,0,0,2.67,3.38l20.17,7a4,4,0,0,1,2,6l-12.07,18a4,4,0,0,0,.3,4.82A316,316,0,0,0,154,355.53a172.12,172.12,0,0,0,24.39,1.82c-43.24-63.93-50.23-130.24-51.75-149.42Z" fill="#898989"/><path d="M126.66,207.93a2.94,2.94,0,0,0-4.73-2.1L102.26,221a11,11,0,0,0-4.21,7.5,238.68,238.68,0,0,0-1.14,35c11.59-11.47,23.55-11.95,30.66-10.82a10,10,0,0,0,5.84-.84,311.61,311.61,0,0,1-6.75-43.94Z" fill="#606060"/><path d="M202.1,355.8C258.37,348.21,306,319.62,331,271.13c-8.54-14.07-22.43-31.62-44.95-33.46-4.95-.4-7.58-2.32-13.41-5.61-5-2.82-10.05-5.39-15.17-7.7A10,10,0,0,1,259,228.6a234.86,234.86,0,0,1,.3,47,3,3,0,0,1-2,2.52l-20.18,7a5,5,0,0,0-2.51,7.51l12.07,18a3,3,0,0,1-.22,3.58A297.94,297.94,0,0,1,202.1,355.8Z" fill="#5b5b5b"/><path d="M255.8,221l-19.67-15.16a2.94,2.94,0,0,0-4.73,2.1c-1.53,19.18-8.51,85.49-51.74,149.42A171.86,171.86,0,0,0,204,355.53a316,316,0,0,0,43.21-40.76,4,4,0,0,0,.3-4.82l-12.07-18a4,4,0,0,1,2-6l20.17-7a4,4,0,0,0,2.66-3.38,236.78,236.78,0,0,0-.3-47.17,11,11,0,0,0-4.21-7.5Z" fill="#898989"/><path d="M238.5,91.28c-2.17-5.65-5.53-8-5-14.9,1.8-24.79-7.22-32.67-12.76-35.16-10.86-4.89-24.05-2.29-33.21.76a27.1,27.1,0,0,1-16.94,0c-9.16-3-22.35-5.65-33.21-.76-5.55,2.49-14.58,10.39-12.76,35.25.5,6.76-2.81,9.1-5,14.64a36.05,36.05,0,0,0-2,17.88l3,22.16a82.09,82.09,0,0,0,31.66,65.14,43.67,43.67,0,0,0,53.45,0,82.08,82.08,0,0,0,31.67-65.09l3-22.2a35.86,35.86,0,0,0-2-17.72Z" fill="#f9ba8f"/><path d="M184.41,196.29a82.09,82.09,0,0,1-31.66-65.14L149.7,109a35.94,35.94,0,0,1,2-17.88c2.16-5.54,5.47-7.88,5-14.64-1.77-24.1,6.67-32.26,12.24-35-9.05-2.8-21.35-4.85-31.59-.24-5.55,2.49-14.58,10.39-12.76,35.25.5,6.76-2.81,9.1-5,14.64a36.05,36.05,0,0,0-2,17.88l3,22.16a82.07,82.07,0,0,0,31.67,65.14,43.72,43.72,0,0,0,42.78,6.08,43.39,43.39,0,0,1-10.68-6.08Z" fill="#fcad6d"/><path d="M295.56,311.49a67.75,67.75,0,0,0-6.69-6.82A8.93,8.93,0,0,0,274,311.4v17.14A171.27,171.27,0,0,0,295.56,311.49Z" fill="#5b5b5b"/><path d="M356.82,178.64A177.48,177.48,0,0,0,287.49,37.78a103.3,103.3,0,0,1-4.28,71.1c-18.43,43-28.74,70.33,5.79,83,24.49,9,48.76,13.34,63.14,27.44A178,178,0,0,0,356.82,178.64Z" fill="#ddd"/><path d="M1.24,178.64A177.48,177.48,0,0,1,70.57,37.78a103.3,103.3,0,0,0,4.28,71.1c18.43,43,28.74,70.33-5.79,83-24.49,9-48.76,13.34-63.14,27.44A178,178,0,0,1,1.24,178.64Z" fill="#ddd"/></g></g></svg>